<svg xmlns="http://www.w3.org/2000/svg" width="70" height="70" viewBox="0 0 70 70"><g><g><path fill="#fff" d="M34.999 53.807c-10.37 0-18.807-8.437-18.807-18.807 0-10.372 8.436-18.809 18.807-18.809 10.37 0 18.807 8.439 18.807 18.81C53.808 45.37 45.37 53.806 35 53.806zm0-35.607c-9.262 0-16.798 7.536-16.798 16.8 0 9.262 7.536 16.798 16.798 16.798 9.262 0 16.798-7.536 16.798-16.798C51.8 25.736 44.263 18.2 35 18.2zm0-8.193c-.554 0-1.004-.45-1.004-1.004V1.005a1.005 1.005 0 0 1 2.008 0v7.998c0 .556-.448 1.004-1.004 1.004zm0 59.993c-.554 0-1.004-.45-1.004-1.004v-7.998a1.005 1.005 0 0 1 2.008 0v7.998C36.003 69.55 35.555 70 35 70zM9.003 36.004H1.004a1.005 1.005 0 0 1 0-2.009h7.997a1.005 1.005 0 0 1 .002 2.01zm59.993 0h-7.999a1.005 1.005 0 0 1 0-2.009h7.999a1.005 1.005 0 0 1 0 2.01zM16.62 17.618c-.257 0-.515-.099-.711-.294l-5.657-5.652a1.005 1.005 0 0 1 1.42-1.42l5.657 5.652a1.005 1.005 0 0 1-.71 1.714zm42.42 42.425a1.01 1.01 0 0 1-.71-.293l-5.657-5.658a1.005 1.005 0 0 1 1.42-1.42l5.657 5.658a1.005 1.005 0 0 1-.71 1.713zm-48.077 0a1.005 1.005 0 0 1-.711-1.713l5.657-5.658a1.005 1.005 0 0 1 1.42 1.42l-5.657 5.658a1.008 1.008 0 0 1-.709.293zm42.421-42.425a1.005 1.005 0 0 1-.711-1.713l5.657-5.653a1.005 1.005 0 0 1 1.42 1.42l-5.657 5.652a.991.991 0 0 1-.709.294z"/></g></g></svg>