<svg xmlns="http://www.w3.org/2000/svg" width="21" height="24" viewBox="0 0 21 24"><g><g><path fill="#c0ae96" d="M19.604 18.154c.427.56.612 1.184.539 1.803-.073.615-.394 1.18-.932 1.635-.234.198-.471.385-.703.562-.339.265-.662.514-.95.794-.005.012-.016.016-.021.024-.83.732-1.814 1.023-2.926.882-.096-.012-.202-.032-.302-.048-1.64-.318-3.042-1.15-4.085-1.833-2.727-1.821-5.021-4.2-6.821-7.076C1.92 12.511.995 10.35.473 8.07.26 7.14.007 5.732.295 4.291a3.683 3.683 0 0 1 1.32-2.184L3.455.604l.011-.01C4.005.179 4.603-.004 5.191.07c.587.074 1.116.4 1.526.94.278.337.543.695.796 1.043.126.178.26.356.392.53l1.153 1.53c.887 1.169.726 2.525-.41 3.444-.15.123-.302.252-.454.373-.401.33-.813.673-1.252.994.214.71.54 1.428 1.048 2.288 1.055 1.739 2.206 3.126 3.52 4.24.13.113.283.216.446.33.112.077.23.16.347.246l1.708-1.375c.547-.447 1.146-.634 1.738-.562.598.077 1.13.42 1.537.98zm-1.036.824l-2.328-3.086c-.005-.002-.005-.002-.009-.008-.13-.189-.352-.415-.65-.456-.304-.033-.588.137-.772.285l-1.85 1.495c-.091.075-.372.306-.772.252a1.02 1.02 0 0 1-.462-.187c-.018-.009-.036-.028-.054-.04a5.83 5.83 0 0 0-.445-.323 6.98 6.98 0 0 1-.553-.41c-1.426-1.208-2.67-2.707-3.799-4.575l-.004-.006C6.252 10.866 5.866 10 5.626 9.097l-.01-.047c-.053-.294-.08-.724.385-1.103.006-.01.017-.012.027-.017.466-.337.898-.688 1.354-1.062.156-.122.308-.25.465-.38.573-.46.63-.95.183-1.544L6.876 3.421c-.134-.186-.27-.366-.4-.545a21.977 21.977 0 0 0-.76-.999c-.005-.011-.01-.013-.013-.02-.136-.18-.359-.401-.662-.44-.246-.029-.511.062-.774.263L2.423 3.169a2.32 2.32 0 0 0-.84 1.398c-.181.903-.132 1.886.169 3.19.486 2.126 1.36 4.158 2.758 6.417 1.698 2.708 3.861 4.952 6.426 6.663.938.623 2.199 1.367 3.618 1.645.071.013.149.022.22.034.752.093 1.355-.085 1.906-.566.341-.325.698-.606 1.048-.877.232-.181.447-.35.66-.533-.006.004-.006 0 0 0 .553-.467.615-.989.18-1.562z"/></g></g></svg>