<svg xmlns="http://www.w3.org/2000/svg" width="19" height="23" viewBox="0 0 19 23"><g><g><path fill="#c0ae96" d="M5.903 10.937c-1.713-2.07-1.428-5.612-1.397-5.95.111-2.557 1.25-3.771 2.184-4.34.93-.566 1.9-.652 2.393-.652h.075c.899.023 1.704.248 2.393.674.925.568 2.046 1.78 2.157 4.318.031.338.316 3.88-1.396 5.95-.779.937-1.833 1.427-3.136 1.455h-.142c-1.303-.028-2.358-.518-3.131-1.455zm.894-.856c.556.676 1.307 1.016 2.286 1.022h.044c.983-.006 1.73-.346 2.29-1.022 1.415-1.703 1.104-4.943 1.1-4.974-.005-.01-.005-.026-.005-.04-.138-3.23-2.18-3.75-3.38-3.78h-.054c-.97 0-3.233.37-3.38 3.78 0 .01-.004.025-.004.04-.005.026-.307 3.28 1.103 4.974zM18.032 20.42a.623.623 0 0 1-.232.3c-.133.09-3.331 2.278-8.682 2.278-5.35 0-8.548-2.183-8.682-2.277a.597.597 0 0 1-.231-.301c-.236-.638-.231-1.91-.227-2.155v-.015c.004-.037.004-.075.004-.118.027-.942.085-3.145 2.016-3.857.013-.002.026-.008.044-.014 2.015-.548 3.674-1.784 3.692-1.798a.571.571 0 0 1 .836.158.664.664 0 0 1-.147.89c-.076.055-1.846 1.38-4.06 1.99-1.037.396-1.153 1.583-1.184 2.668 0 .044-.004.081-.004.118-.01.427.022 1.09.093 1.47.725.441 3.567 1.958 7.846 1.958 4.296 0 7.12-1.512 7.841-1.95.071-.38.098-1.045.094-1.47-.005-.042-.005-.08-.005-.12-.03-1.087-.147-2.273-1.183-2.671-2.215-.609-3.985-1.93-4.06-1.988a.667.667 0 0 1-.147-.891.575.575 0 0 1 .836-.158c.017.015 1.685 1.25 3.691 1.8.014.006.031.008.045.013 1.93.707 1.988 2.91 2.015 3.855 0 .042.004.08.004.118v.017c.005.246.01 1.518-.213 2.15z"/></g></g></svg>