<svg xmlns="http://www.w3.org/2000/svg" width="21" height="34" viewBox="0 0 21 34">
            <path fill="#c0ae96" d="M19.627 18.475a11.29 11.29 0 0 1-3.207 4.283 11.208 11.208 0 0 1-4.46 2.261c-2.443.592-4.986.3-7.031-.993-.968 1.253-4.004 5.482-3.386 8.659a.503.503 0 0 1-.4.583.494.494 0 0 1-.592-.378c-.703-3.556 2.523-8.093 3.567-9.44a7.913 7.913 0 0 1-2.198-2.887 8.018 8.018 0 0 1-.518-4.884 8.188 8.188 0 0 1 2.732-4.55 10.355 10.355 0 0 1 2.612-1.63c7.268-3.175 8.27-8.537 8.265-8.55V.948a.517.517 0 0 1 .928-.186c5.082 7.39 5.496 13.455 3.688 17.713zm-7.077-5.074l-1.537-3.554a.495.495 0 0 1 .285-.672.5.5 0 0 1 .649.278l1.196 2.764a20.569 20.569 0 0 0 2.07-8.982c-1.019 2.022-3.265 5.078-8.066 7.161a9.266 9.266 0 0 0-2.355 1.456 7.194 7.194 0 0 0-2.409 4.003 7.066 7.066 0 0 0 1.675 6.14c.236.26.49.502.763.724 3.752-3.213 6.177-6.41 7.729-9.318zM16.215 3.06c.053 2.253-.323 6.056-2.624 10.51a29.396 29.396 0 0 1-3.158 4.803l3.45-.434a.492.492 0 0 1 .547.409c.039.27-.153.52-.43.564l-4.49.568a38.906 38.906 0 0 1-3.864 3.822c1.822 1.033 4.009 1.307 6.075.765a10.12 10.12 0 0 0 4.056-2.041 10.281 10.281 0 0 0 2.914-3.91v-.003c1.553-3.65 1.322-8.777-2.476-15.053z"/>
</svg>