<svg xmlns="http://www.w3.org/2000/svg" width="56" height="54" viewBox="0 0 56 54"><g><g><path fill="#fff" d="M55.54 37.612A28.158 28.158 0 0 1 45.277 49.43a28.405 28.405 0 0 1-15.5 4.57C14.163 54 1.46 41.423 1.46 25.963a27.722 27.722 0 0 1 4.615-15.346A28.276 28.276 0 0 1 18.011.455a2.416 2.416 0 0 1 2.88.68c.69.856.703 2.06.032 2.93a21.538 21.538 0 0 0-4.527 13.267c0 9.457 6.098 17.808 15.174 20.78.5.164.771.698.606 1.193a.956.956 0 0 1-1.205.6 23.938 23.938 0 0 1-11.827-8.52 23.405 23.405 0 0 1-4.656-14.053c0-5.258 1.701-10.242 4.919-14.413a.487.487 0 0 0-.007-.606.499.499 0 0 0-.595-.14 26.379 26.379 0 0 0-11.134 9.48 25.854 25.854 0 0 0-4.304 14.31c0 14.418 11.848 26.148 26.41 26.148a26.495 26.495 0 0 0 14.454-4.26 26.266 26.266 0 0 0 9.575-11.025.489.489 0 0 0-.142-.59.502.502 0 0 0-.613-.005c-4.212 3.185-9.246 4.87-14.557 4.87-1.445 0-2.893-.13-4.305-.384a.945.945 0 0 1-.768-1.097.952.952 0 0 1 1.109-.76c1.3.233 2.633.352 3.964.352 4.89 0 9.523-1.55 13.4-4.482a2.42 2.42 0 0 1 2.96.031 2.362 2.362 0 0 1 .686 2.85zM26.43 16.264c0-.521.428-.944.954-.944 2.254 0 4.087-1.815 4.087-4.046 0-.522.427-.944.954-.944.527 0 .953.422.953.944 0 2.23 1.834 4.046 4.087 4.046.527 0 .954.423.954.944a.95.95 0 0 1-.954.945c-2.253 0-4.087 1.815-4.087 4.046a.949.949 0 0 1-.953.944.949.949 0 0 1-.954-.944c0-2.231-1.833-4.046-4.087-4.046a.95.95 0 0 1-.953-.945zm4.195 0a6.008 6.008 0 0 1 1.8 1.782 6.011 6.011 0 0 1 1.8-1.782 6.016 6.016 0 0 1-1.8-1.781 6.008 6.008 0 0 1-1.8 1.781zm7.291 10.15c0-1.62 1.331-2.939 2.967-2.939 1.636 0 2.967 1.319 2.967 2.938 0 1.62-1.33 2.938-2.967 2.938-1.636 0-2.967-1.318-2.967-2.938zm1.908 0c0 .578.475 1.049 1.06 1.049.583 0 1.059-.471 1.059-1.05 0-.578-.476-1.048-1.06-1.048-.584 0-1.06.47-1.06 1.048zM7.372 49.547c0 1.62-1.33 2.938-2.967 2.938-1.636 0-2.967-1.318-2.967-2.938s1.331-2.937 2.967-2.937c1.636 0 2.967 1.318 2.967 2.937zm-1.907 0c0-.578-.476-1.049-1.06-1.049-.584 0-1.06.47-1.06 1.05 0 .578.476 1.048 1.06 1.048.585 0 1.06-.47 1.06-1.049zm26.96-23.134c.66 0 1.195.53 1.195 1.184a1.19 1.19 0 0 1-1.195 1.184 1.19 1.19 0 0 1-1.196-1.184 1.19 1.19 0 0 1 1.196-1.184zM1.195 40.63c.66 0 1.196.53 1.196 1.184a1.19 1.19 0 0 1-1.195 1.184A1.19 1.19 0 0 1 0 41.813a1.19 1.19 0 0 1 1.196-1.184zM40.093 8.115c.66 0 1.196.53 1.196 1.184a1.19 1.19 0 0 1-1.196 1.184A1.19 1.19 0 0 1 38.897 9.3a1.19 1.19 0 0 1 1.195-1.184z"/></g></g></svg>